<svg xmlns="http://www.w3.org/2000/svg" version="1.1" xmlns:xlink="http://www.w3.org/1999/xlink" xmlns:svgjs="http://svgjs.dev/svgjs" width="1000" height="1000" viewBox="0 0 1000 1000"><rect width="1000" height="1000" fill="#ffffff"></rect><g transform="matrix(0.7,0,0,0.7,149.57575757575756,282.1265587044535)"><svg viewBox="0 0 396 247" data-background-color="#ffffff" preserveAspectRatio="xMidYMid meet" height="623" width="1000" xmlns="http://www.w3.org/2000/svg" xmlns:xlink="http://www.w3.org/1999/xlink"><g id="tight-bounds" transform="matrix(1,0,0,1,0.2400000000000091,-0.09999999999999432)"><svg viewBox="0 0 395.52 247.2" height="247.2" width="395.52"><g><svg></svg></g><g><svg viewBox="0 0 395.52 247.2" height="247.2" width="395.52"><g transform="matrix(1,0,0,1,39.55199999999999,75.53982849095902)"><svg viewBox="0 0 316.416 96.12034301808194" height="96.12034301808194" width="316.416"><g><svg viewBox="0 0 316.416 96.12034301808194" height="96.12034301808194" width="316.416"><g><svg viewBox="0 0 316.416 96.12034301808194" height="96.12034301808194" width="316.416"><g><svg viewBox="0 0 316.416 96.12034301808194" height="96.12034301808194" width="316.416"><g id="textblocktransform"><svg viewBox="0 0 316.416 96.12034301808194" height="96.12034301808194" width="316.416" id="textblock"><g><svg viewBox="0 0 316.416 51.84272004927626" height="51.84272004927626" width="316.416"><g transform="matrix(1,0,0,1,0,0)"><svg width="316.416" viewBox="0 -37.5 317.04998779296875 51.95000076293945" height="51.84272004927626" data-palette-color="#e6bc00"><path d="M35.94 0L35.94 0 32.23 0.34Q29.54-16.5 26.42-28.52L26.42-28.52Q24.8-24.71 22.88-17.8 20.95-10.89 20.21-8.84L20.21-8.84Q20.12-8.84 19.9-8.81 19.68-8.79 19.53-8.79L19.53-8.79Q18.85-8.79 17.29-8.94 15.72-9.08 15.28-9.08L15.28-9.08Q15.23-10.5 12.79-18.53 10.35-26.56 9.86-28.81L9.86-28.81Q8.98-20.9 3.03 0L3.03 0 0-0.29Q0.68-5.62 3.37-17.04 6.05-28.47 6.54-34.72L6.54-34.72Q7.42-34.81 7.96-34.81L7.96-34.81Q8.45-34.81 11.57-34.42L11.57-34.42Q12.26-34.33 13.55-30 14.84-25.68 16.16-20.51 17.48-15.33 17.82-14.4L17.82-14.4Q19.19-17.77 21.12-25.34 23.05-32.91 23.83-34.96L23.83-34.96Q24.61-34.91 28.76-34.52L28.76-34.52Q30.03-29.59 31.23-23.88 32.42-18.16 33.81-10.89 35.21-3.61 35.94 0ZM41.45 14.45L41.45 14.45 38.43 12.74Q40.43 9.28 45.51-0.44L45.51-0.44Q41.55-3.96 39.45-11.08 37.35-18.21 36.91-25.34L36.91-25.34 39.74-25.2Q39.99-24.02 40.79-19.85 41.6-15.67 42.09-13.67 42.58-11.67 43.82-8.67 45.07-5.66 46.68-3.61L46.68-3.61Q53.46-16.65 53.46-25L53.46-25 53.46-25.54Q56-25.15 57.27-24.61L57.27-24.61Q56.49-19.48 54.83-14.16 53.17-8.84 50.68-3.44 48.19 1.95 46.26 5.62 44.33 9.28 41.45 14.45ZM74.31-23.54L74.31-23.54 73.82-21.58Q69.09-23.54 66.45-23.54L66.45-23.54Q64.11-23.54 63.15-22.83 62.2-22.12 62.2-19.82L62.2-19.82Q62.2-17.97 63.54-16.75 64.89-15.53 66.79-14.82 68.7-14.11 70.62-13.31 72.55-12.5 73.9-10.94 75.24-9.38 75.24-7.08L75.24-7.08Q75.24-3.96 72.94-1.61 70.65 0.73 66.99 0.78L66.99 0.78Q64.3 0.78 61.96-0.34 59.61-1.46 58.25-3.17L58.25-3.17 59.66-4.64Q60.25-4.39 61.4-3.86 62.54-3.32 63.03-3.15 63.52-2.98 64.47-2.78 65.42-2.59 66.5-2.59L66.5-2.59Q68.79-2.59 70.26-3.61 71.72-4.64 71.72-6.49L71.72-6.49Q71.72-7.71 71.04-8.57 70.36-9.42 69.23-9.96 68.11-10.5 66.77-10.99 65.42-11.47 64.08-12.08 62.74-12.7 61.62-13.55 60.49-14.4 59.81-15.87 59.13-17.33 59.13-19.34L59.13-19.34Q59.13-22.27 60.71-24.24 62.3-26.22 65.18-26.22L65.18-26.22Q66.3-26.22 67.72-25.88 69.14-25.54 69.97-25.24 70.8-24.95 72.43-24.29 74.07-23.63 74.31-23.54ZM91.55-23.63L91.55-23.63 92.08-21.44Q90.76-21.34 88.03-20.92 85.3-20.51 83.93-20.41L83.93-20.41Q84.17-18.7 84.22-15.92 84.27-13.13 84.34-11.11 84.42-9.08 84.78-7.06 85.15-5.03 86.3-3.96 87.44-2.88 89.4-2.88L89.4-2.88Q90.86-2.88 93.06-3.56L93.06-3.56Q93.99-1.76 94.43-0.93L94.43-0.93Q90.57 0.44 86.61 0.44L86.61 0.44Q85.15 0.44 84.07-0.44 83-1.32 82.41-2.64 81.83-3.96 81.46-5.98 81.1-8.01 81-9.81 80.9-11.62 80.9-13.96L80.9-13.96Q80.9-15.23 80.93-17.48 80.95-19.73 80.95-20.56L80.95-20.56Q80.46-20.51 78.65-20.48 76.85-20.46 76.56-20.46L76.56-20.46Q76.21-23.73 76.21-23.83L76.21-23.83Q76.56-23.73 77.34-23.73L77.34-23.73Q77.78-23.73 78.75-23.8 79.73-23.88 80.22-23.88L80.22-23.88Q80.41-23.88 80.73-23.85 81.05-23.83 81.14-23.83L81.14-23.83Q81.34-29.2 81.58-32.57L81.58-32.57 83.78-32.03Q83.83-30.86 83.85-29.52 83.88-28.17 83.9-26.54 83.93-24.9 83.93-24.02L83.93-24.02Q85.2-23.93 87.74-23.83 90.28-23.73 91.55-23.63ZM113.91-4.74L113.91-4.74 114.39-2.59Q112.25-1.81 108.02-0.85 103.8 0.1 101.75 0.1L101.75 0.1Q99.65 0.1 98.09-1.29 96.52-2.69 95.74-4.86 94.96-7.03 94.59-9.16 94.23-11.28 94.23-13.33L94.23-13.33Q94.23-25.54 105.26-25.54L105.26-25.54Q107.9-25.54 109.9-23.85 111.9-22.17 111.9-19.48L111.9-19.48Q111.9-18.02 111.1-16.89 110.29-15.77 109.15-15.11 108-14.45 106.22-13.92 104.43-13.38 103.07-13.13 101.7-12.89 99.79-12.6 97.89-12.3 97.16-12.16L97.16-12.16Q97.21-10.74 97.33-9.67 97.45-8.59 97.82-7.35 98.18-6.1 98.79-5.3 99.4-4.49 100.48-3.96 101.55-3.42 103.02-3.42L103.02-3.42Q104.78-3.42 107.31-3.74 109.85-4.05 111.83-4.39 113.81-4.74 113.91-4.74ZM97.35-15.19L97.35-15.19Q103.99-17.09 108.24-19.19L108.24-19.19Q107.9-20.8 107.31-21.53 106.73-22.27 105.56-22.27L105.56-22.27Q102.58-22.27 100.16-20.21 97.74-18.16 97.35-15.19ZM132.46-18.6L132.46-18.6 130.31-18.75Q129.28-21.48 126.84-21.48L126.84-21.48Q125.77-21.48 124.57-21 123.38-20.51 122.59-20 121.81-19.48 120.54-18.51L120.54-18.51Q120.54-17.82 120.52-14.06 120.5-10.3 120.57-5.71 120.64-1.12 120.74-0.78L120.74-0.78Q120.3 0.68 119.03 0.68L119.03 0.68Q118.15 0.68 117.35-0.02 116.54-0.73 116.34-1.76L116.34-1.76Q117.27-17.43 118.01-25.44L118.01-25.44 120.2-24.95 120.35-21.68Q123.77-24.51 126.21-24.51L126.21-24.51Q128.89-24.51 130.72-23.29 132.56-22.07 132.56-19.73L132.56-19.73Q132.56-18.99 132.46-18.6ZM135.58-25.1L135.58-25.1 137.83-24.61Q138.22-20.61 138.51-12.04 138.8-3.47 138.9-1.42L138.9-1.42Q138.46 0.1 137.19 0.1L137.19 0.1Q136.31 0.1 135.51-0.61 134.7-1.32 134.51-2.34L134.51-2.34Q134.6-4.35 134.9-12.77 135.19-21.19 135.58-25.1ZM136.26-33.84L136.26-33.84Q137.58-33.84 138.46-32.69 139.34-31.54 139.34-30.08L139.34-30.08Q139.34-29 138.83-28.34 138.32-27.69 137.44-27.69L137.44-27.69Q136.07-27.69 135.29-28.81 134.51-29.93 134.51-31.45L134.51-31.45Q134.51-32.52 134.97-33.18 135.43-33.84 136.26-33.84ZM143.34-10.4L143.34-10.4Q143.34-12.35 143.76-14.75 144.17-17.14 145-19.78 145.83-22.41 147.49-24.17 149.15-25.93 151.35-25.93L151.35-25.93Q156.04-25.93 158.87-21.7 161.7-17.48 161.7-12.3L161.7-12.3Q161.7-10.11 161.24-7.93 160.77-5.76 159.8-3.66 158.82-1.56 156.99-0.17 155.16 1.22 152.72 1.42L152.72 1.42Q148.22 0.83 145.78-2.42 143.34-5.66 143.34-10.4ZM151.64-23.39L151.64-23.39Q149.93-23.19 148.76-20.26 147.59-17.33 147.25-14.58 146.91-11.82 146.91-9.72L146.91-9.72Q146.91-6.98 148.59-4.66 150.28-2.34 152.38-2.34L152.38-2.34Q153.89-2.34 155.11-3.52 156.33-4.69 157.04-6.42 157.75-8.15 158.11-9.91 158.48-11.67 158.48-13.04L158.48-13.04Q158.48-17.04 156.67-20.02 154.87-23 151.64-23.39ZM180.16-24.51L180.16-24.51 182.5-24.07 182.5-23.58Q182.5-20.26 182.91-12.35 183.33-4.44 183.67-0.15L183.67-0.15Q182.69 0.24 181.82 0.24L181.82 0.24Q181.03 0.24 180.06 0L180.06 0 179.67-1.27Q176.54 0.49 173.71 0.49L173.71 0.49Q171.61 0.49 170.07-0.49 168.53-1.46 167.7-2.91 166.87-4.35 166.39-6.47 165.9-8.59 165.78-10.33 165.65-12.06 165.65-14.21L165.65-14.21Q165.65-20.46 166.44-25.68L166.44-25.68 168.63-25.2Q168.97-23.58 168.97-21.68L168.97-21.68Q168.97-20.61 168.85-17.97 168.73-15.33 168.73-13.96L168.73-13.96Q168.73-11.57 168.95-9.84 169.17-8.11 169.78-6.47 170.39-4.83 171.66-3.96 172.93-3.08 174.83-3.08L174.83-3.08Q176.98-3.08 179.47-4.05L179.47-4.05Q179.57-5.86 179.67-13.31 179.77-20.75 180.16-24.51ZM202.66-23.54L202.66-23.54 202.17-21.58Q197.44-23.54 194.8-23.54L194.8-23.54Q192.46-23.54 191.51-22.83 190.55-22.12 190.55-19.82L190.55-19.82Q190.55-17.97 191.9-16.75 193.24-15.53 195.14-14.82 197.05-14.11 198.98-13.31 200.91-12.5 202.25-10.94 203.59-9.38 203.59-7.08L203.59-7.08Q203.59-3.96 201.3-1.61 199 0.73 195.34 0.78L195.34 0.78Q192.65 0.78 190.31-0.34 187.97-1.46 186.6-3.17L186.6-3.17 188.01-4.64Q188.6-4.39 189.75-3.86 190.9-3.32 191.38-3.15 191.87-2.98 192.82-2.78 193.78-2.59 194.85-2.59L194.85-2.59Q197.15-2.59 198.61-3.61 200.08-4.64 200.08-6.49L200.08-6.49Q200.08-7.71 199.39-8.57 198.71-9.42 197.58-9.96 196.46-10.5 195.12-10.99 193.78-11.47 192.43-12.08 191.09-12.7 189.97-13.55 188.84-14.4 188.16-15.87 187.48-17.33 187.48-19.34L187.48-19.34Q187.48-22.27 189.06-24.24 190.65-26.22 193.53-26.22L193.53-26.22Q194.66-26.22 196.07-25.88 197.49-25.54 198.32-25.24 199.15-24.95 200.78-24.29 202.42-23.63 202.66-23.54ZM219.89-2.78L219.89-2.78 220.58-5.52Q224.83-3.22 228.93-3.22L228.93-3.22Q231.86-3.22 233.93-4.42 236.01-5.62 236.01-8.3L236.01-8.3Q236.01-10.69 234.25-12.67 232.49-14.65 230-16.16 227.51-17.68 225.02-19.26 222.53-20.85 220.77-23.17 219.02-25.49 219.02-28.32L219.02-28.32Q219.02-31.79 221.51-34.64 224-37.5 227.51-37.5L227.51-37.5Q230.2-37.5 233.49-36.43 236.79-35.35 239.04-34.28L239.04-34.28 238.45-32.32Q232.88-34.23 229.07-34.23L229.07-34.23Q226.73-34.23 225.07-32.71 223.41-31.2 223.41-28.81L223.41-28.81Q223.41-27 224.34-25.54 225.27-24.07 226.75-23 228.24-21.92 230.08-20.9 231.91-19.87 233.71-18.7 235.52-17.53 237.01-16.16 238.5-14.79 239.43-12.72 240.35-10.64 240.35-8.06L240.35-8.06Q240.35-4.39 238.01-2.08 235.67 0.24 231.91 0.24L231.91 0.24Q228.68 0.24 225.05-0.66 221.41-1.56 219.89-2.78ZM242.84 11.77L243.43-25.68 246.16-25.2Q246.16-24.17 246.21-23.68L246.21-23.68Q248.9-25.39 251.63-25.39L251.63-25.39Q256.07-25.39 258.56-21.58 261.05-17.77 261.05-12.94L261.05-12.94Q261.05-10.5 260.69-8.28 260.32-6.05 259.39-3.74 258.47-1.42 256.54-0.02 254.61 1.37 251.87 1.37L251.87 1.37Q249.29 1.37 246.89 0L246.89 0Q247.09 8.54 247.24 12.7L247.24 12.7Q246.8 14.21 245.53 14.21L245.53 14.21Q244.65 14.21 243.84 13.5 243.04 12.79 242.84 11.77L242.84 11.77ZM246.6-20.51L246.6-20.51 246.75-4.74Q247.33-3.56 248.55-2.86 249.77-2.15 251.24-2.15L251.24-2.15Q253.14-2.15 254.49-3.37 255.83-4.59 256.39-6.62 256.95-8.64 257.17-10.4 257.39-12.16 257.39-14.11L257.39-14.11Q257.39-22.41 251.78-22.41L251.78-22.41Q249.97-22.41 248.43-21.9 246.89-21.39 246.6-20.51ZM266.08-25.1L266.08-25.1 268.33-24.61Q268.72-20.61 269.01-12.04 269.3-3.47 269.4-1.42L269.4-1.42Q268.96 0.1 267.69 0.1L267.69 0.1Q266.81 0.1 266.01-0.61 265.2-1.32 265.01-2.34L265.01-2.34Q265.1-4.35 265.4-12.77 265.69-21.19 266.08-25.1ZM266.76-33.84L266.76-33.84Q268.08-33.84 268.96-32.69 269.84-31.54 269.84-30.08L269.84-30.08Q269.84-29 269.33-28.34 268.82-27.69 267.94-27.69L267.94-27.69Q266.57-27.69 265.79-28.81 265.01-29.93 265.01-31.45L265.01-31.45Q265.01-32.52 265.47-33.18 265.93-33.84 266.76-33.84ZM289.96-18.6L289.96-18.6 287.81-18.75Q286.78-21.48 284.34-21.48L284.34-21.48Q283.27-21.48 282.07-21 280.87-20.51 280.09-20 279.31-19.48 278.04-18.51L278.04-18.51Q278.04-17.82 278.02-14.06 277.99-10.3 278.07-5.71 278.14-1.12 278.24-0.78L278.24-0.78Q277.8 0.68 276.53 0.68L276.53 0.68Q275.65 0.68 274.84-0.02 274.04-0.73 273.84-1.76L273.84-1.76Q274.77-17.43 275.5-25.44L275.5-25.44 277.7-24.95 277.85-21.68Q281.26-24.51 283.71-24.51L283.71-24.51Q286.39-24.51 288.22-23.29 290.05-22.07 290.05-19.73L290.05-19.73Q290.05-18.99 289.96-18.6ZM293.08-25.1L293.08-25.1 295.32-24.61Q295.71-20.61 296.01-12.04 296.3-3.47 296.4-1.42L296.4-1.42Q295.96 0.1 294.69 0.1L294.69 0.1Q293.81 0.1 293-0.61 292.2-1.32 292-2.34L292-2.34Q292.1-4.35 292.39-12.77 292.69-21.19 293.08-25.1ZM293.76-33.84L293.76-33.84Q295.08-33.84 295.96-32.69 296.84-31.54 296.84-30.08L296.84-30.08Q296.84-29 296.32-28.34 295.81-27.69 294.93-27.69L294.93-27.69Q293.57-27.69 292.78-28.81 292-29.93 292-31.45L292-31.45Q292-32.52 292.47-33.18 292.93-33.84 293.76-33.84ZM314.17-23.63L314.17-23.63 314.71-21.44Q313.39-21.34 310.65-20.92 307.92-20.51 306.55-20.41L306.55-20.41Q306.8-18.7 306.84-15.92 306.89-13.13 306.97-11.11 307.04-9.08 307.41-7.06 307.77-5.03 308.92-3.96 310.07-2.88 312.02-2.88L312.02-2.88Q313.49-2.88 315.68-3.56L315.68-3.56Q316.61-1.76 317.05-0.93L317.05-0.93Q313.19 0.44 309.24 0.44L309.24 0.44Q307.77 0.44 306.7-0.44 305.62-1.32 305.04-2.64 304.45-3.96 304.09-5.98 303.72-8.01 303.62-9.81 303.52-11.62 303.52-13.96L303.52-13.96Q303.52-15.23 303.55-17.48 303.57-19.73 303.57-20.56L303.57-20.56Q303.09-20.51 301.28-20.48 299.47-20.46 299.18-20.46L299.18-20.46Q298.84-23.73 298.84-23.83L298.84-23.83Q299.18-23.73 299.96-23.73L299.96-23.73Q300.4-23.73 301.38-23.8 302.35-23.88 302.84-23.88L302.84-23.88Q303.04-23.88 303.35-23.85 303.67-23.83 303.77-23.83L303.77-23.83Q303.96-29.2 304.21-32.57L304.21-32.57 306.41-32.03Q306.45-30.86 306.48-29.52 306.5-28.17 306.53-26.54 306.55-24.9 306.55-24.02L306.55-24.02Q307.82-23.93 310.36-23.83 312.9-23.73 314.17-23.63Z" opacity="1" transform="matrix(1,0,0,1,0,0)" fill="#e6bc00" class="undefined-text-0" data-fill-palette-color="primary" id="text-0"></path></svg></g></svg></g><g transform="matrix(1,0,0,1,0,64.0815420276292)"><svg viewBox="0 0 316.416 32.03880099045273" height="32.03880099045273" width="316.416"><g transform="matrix(1,0,0,1,0,0)"><svg width="316.416" viewBox="0 -35.650001525878906 532.3200073242188 53.900001525878906" height="32.03880099045273" data-palette-color="#b89600"><path d="M20.9-35.2L20.9-35.2Q21.15-35.2 21.25-34.9L21.25-34.9Q21.25-34.5 20.65-34.4L20.65-34.4Q17.85-33.45 14.68-30.95 11.5-28.45 8.68-24.93 5.85-21.4 3.98-16.6 2.1-11.8 2.1-6.9L2.1-6.9Q2.1-0.25 6.8-0.25L6.8-0.25Q9.55-0.25 13.23-2.68 16.9-5.1 20.13-8.78 23.35-12.45 25.6-17.4 27.85-22.35 27.85-26.93 27.85-31.5 24.7-31.5L24.7-31.5Q22.15-31.5 18.7-28.78 15.25-26.05 12.68-21.88 10.1-17.7 10.1-14.03 10.1-10.35 12.65-10.35L12.65-10.35Q14.25-10.35 16.28-11.88 18.3-13.4 19.9-15.95L19.9-15.95Q20.1-16.35 20.38-16.35 20.65-16.35 20.65-16.05L20.65-16.05Q20.65-14.65 17.18-11.65 13.7-8.65 11.2-8.65L11.2-8.65Q8.25-8.65 8.25-13.4L8.25-13.4Q8.25-17.1 11.35-21.83 14.45-26.55 18.65-29.8 22.85-33.05 25.9-33.05L25.9-33.05Q29.9-33.05 29.9-27.1L29.9-27.1Q29.9-22.6 27.3-17.43 24.7-12.25 20.98-8.22 17.25-4.2 13-1.5 8.75 1.2 5.55 1.2L5.55 1.2Q0 1.2 0-6.7L0-6.7Q0-11.5 1.9-16.18 3.8-20.85 6.53-24.15 9.25-27.45 12.28-30.05 15.3-32.65 17.63-33.93 19.95-35.2 20.9-35.2ZM36.15-1.3L36.15-1.3Q38.4-1.25 39.3 0.05L39.3 0.05Q44-2.4 47.65-4.75L47.65-4.75Q47.7-4.6 47.7-4.3 47.7-4 47.25-3.8L47.25-3.8Q45.5-2.6 43.65-1.5 41.8-0.4 39.65 0.8L39.65 0.8Q39.8 1.3 39.8 2L39.8 2Q39.8 4.65 37.48 8.58 35.15 12.5 32.03 15.38 28.9 18.25 26.8 18.25L26.8 18.25Q25.85 18.25 25.85 16.75 25.85 15.25 31.1 5.1L31.1 5.1Q30 5.5 29.35 5.5L29.35 5.5Q27.55 5.5 27.55 4.45L27.55 4.45Q27.55 3.2 29.73 1.4 31.9-0.4 34.35-1.05L34.35-1.05Q39.95-11.2 45.2-18.48 50.45-25.75 53.2-25.75L53.2-25.75Q54.3-25.75 54.3-24.65L54.3-24.65Q54.3-23 53.08-20.7 51.85-18.4 50.05-16.18 48.25-13.95 46.03-11.6 43.8-9.25 42-7.58 40.2-5.9 38.8-4.63 37.4-3.35 37.35-3.3L37.35-3.3Q37.1-2.9 36.68-2.18 36.25-1.45 36.15-1.3ZM27.95 15.85L27.95 15.85Q27.95 16.4 28.3 16.4L28.3 16.4Q29.7 16.4 32.13 13.83 34.55 11.25 36.48 7.8 38.4 4.35 38.4 2.1L38.4 2.1Q38.4 1.7 38.35 1.5L38.35 1.5Q35.55 3.1 33 4.3L33 4.3Q27.95 13.55 27.95 15.85ZM52.5-23.4L52.5-23.4Q52.5-24 51.95-24L51.95-24Q51-23.95 47.1-18.43 43.2-12.9 38.55-5.3L38.55-5.3Q41.65-8.05 45.3-12.05L45.3-12.05Q52.5-19.85 52.5-23.4ZM30.9 1.33Q29.6 2.3 29.6 3 29.6 3.7 30.9 3.7L30.9 3.7Q31.1 3.7 31.9 3.5L31.9 3.5 33.85-0.1Q32.2 0.35 30.9 1.33ZM33.85 2.7L33.85 2.7Q35.1 2.2 38.1 0.65L38.1 0.65Q37.45-0.4 35.75-0.4L35.75-0.4 35.65-0.4Q35.3 0.2 34.7 1.25 34.1 2.3 33.85 2.7ZM106.35-5.4L106.35-5.4Q106.75-5.4 106.75-4.8L106.75-4.8Q106.75-4.05 104.43-2.5 102.1-0.95 98.43 0.38 94.75 1.7 91.7 1.7L91.7 1.7Q83.9 1.7 83.9-6.95L83.9-6.95Q83.9-11.35 85.88-15.8 87.85-20.25 90.98-23.73 94.1-27.2 97.78-29.95 101.45-32.7 105.08-34.18 108.7-35.65 111.45-35.65L111.45-35.65Q117.15-35.65 117.15-31.25L117.15-31.25Q117.15-27.95 114.1-23.4 111.05-18.85 106.65-15.5 102.25-12.15 98.75-12.15L98.75-12.15Q96.05-12.15 96.05-14.7L96.05-14.7Q96.05-17.95 100.28-22.73 104.5-27.5 107.5-27.5L107.5-27.5Q107.9-27.5 107.9-27.2L107.9-27.2 107.65-26.55Q105.85-26.55 103.4-24.5 100.95-22.45 99.25-19.75 97.55-17.05 97.55-15.25L97.55-15.25Q97.55-13.25 99.6-13.25L99.6-13.25Q102.15-13.25 105.88-16.35 109.6-19.45 112.33-23.68 115.05-27.9 115.05-30.8L115.05-30.8Q115.05-34.45 110.45-34.45L110.45-34.45Q108.05-34.45 104.8-33.08 101.55-31.7 98.25-29.1 94.95-26.5 92.13-23.25 89.3-20 87.53-15.83 85.75-11.65 85.75-7.5L85.75-7.5Q85.75 0.4 92.75 0.4L92.75 0.4Q96.4 0.4 100.65-1.58 104.9-3.55 106.35-5.4ZM122.2-0.65L122.2-0.65Q122.65-0.65 127.23-4.63 131.8-8.6 132.6-8.6 133.4-8.6 133.4-7.9L133.4-7.9Q133.4-7.35 132.4-6.2 131.4-5.05 130.43-3.7 129.45-2.35 129.45-1.3L129.45-1.3Q129.45-0.75 130.28-0.75 131.1-0.75 133.2-1.73 135.3-2.7 136.9-3.7L136.9-3.7 138.5-4.7Q138.55-4.6 138.55-4.3 138.55-4 138.1-3.8L138.1-3.8Q131.35 0.8 128.7 0.8L128.7 0.8Q127.4 0.8 127.4-0.6L127.4-0.6Q127.4-1.55 128.1-2.9 128.8-4.25 129.5-5.15L129.5-5.15 130.15-6.05Q127.9-4.35 125.5-2.23 123.1-0.1 121.85 0.98 120.6 2.05 120.1 2.05 119.6 2.05 119.6 1.33 119.6 0.6 121.95-3.7 124.3-8 127.38-12.98 130.45-17.95 133.83-22 137.2-26.05 138.95-26.05L138.95-26.05Q139.7-26.05 140-25.35L140-25.35Q140.15-25.1 140.15-24.75L140.15-24.75Q140.15-21.3 129.8-11.5L129.8-11.5Q127.85-9.6 126-8L126-8Q122.2-1.6 122.2-0.65ZM138.5-24.2L138.5-24.2Q138.5-24.7 138.25-24.7L138.25-24.7Q137.25-24.7 134.05-20.3 130.85-15.9 127.25-10.05L127.25-10.05Q138.5-20.3 138.5-24.2ZM152-3.35L152-3.35Q151.8-3.25 151.63-3.25 151.45-3.25 151.45-3.45 151.45-3.65 151.6-3.8L151.6-3.8Q153.65-4.95 156.1-7.55L156.1-7.55Q153.85-8.25 153.85-9.53 153.85-10.8 155.55-12.38 157.25-13.95 158.75-13.95L158.75-13.95Q159.75-13.95 159.75-12.75L159.75-12.75Q159.75-10.9 157.9-8.8L157.9-8.8Q160.3-8.4 160.3-7.65L160.3-7.65Q160.3-6.65 159.43-6.13 158.55-5.6 157.4-4.25 156.25-2.9 156.25-1.55L156.25-1.55Q156.25-1.25 156.45-1 156.65-0.75 157.3-0.75 157.95-0.75 160.05-1.73 162.15-2.7 163.75-3.7L163.75-3.7 165.35-4.7Q165.4-4.6 165.4-4.3 165.4-4 164.95-3.8L164.95-3.8Q158.2 0.8 155.55 0.8L155.55 0.8Q154.25 0.8 154.25-0.5L154.25-0.5Q154.25-1.55 154.98-2.7 155.7-3.85 156.58-4.6 157.45-5.35 158.18-6.03 158.9-6.7 158.9-6.9 158.9-7.1 158.28-7.15 157.65-7.2 156.65-7.4L156.65-7.4Q153.9-4.45 152-3.35ZM155.1-10.3L155.1-10.3Q155.1-9.3 157.3-8.9L157.3-8.9Q158.6-10.5 158.6-11.68 158.6-12.85 157.85-12.85 157.1-12.85 156.1-11.98 155.1-11.1 155.1-10.3ZM187.41-15.25L187.41-15.25Q188.16-15.25 188.16-14.5 188.16-13.75 187.46-12.98 186.76-12.2 185.91-12.2L185.91-12.2Q185.21-12.2 185.21-13.18 185.21-14.15 186.01-14.7 186.81-15.25 187.41-15.25ZM182.71-8.65L182.71-8.65Q182.96-9.05 183.41-9.05 183.86-9.05 184.31-8.6L184.31-8.6Q184.31-8.4 183.66-7.7 183.01-7 181.46-4.58 179.91-2.15 179.91-1.35L179.91-1.35Q179.91-0.85 180.66-0.75L180.66-0.75Q181.66-0.75 183.76-1.73 185.86-2.7 187.46-3.7L187.46-3.7 189.06-4.7Q189.11-4.6 189.11-4.3 189.11-4 188.66-3.8L188.66-3.8Q181.91 0.8 179.26 0.8L179.26 0.8Q177.96 0.8 177.96-0.5 177.96-1.8 179.38-4.13 180.81-6.45 182.71-8.65ZM205.21-5.45L205.21-5.45Q202.81-3.25 202.16-3.25L202.16-3.25Q201.96-3.25 201.96-3.45 201.96-3.65 202.11-3.8L202.11-3.8Q203.31-4.45 204.91-5.9L204.91-5.9Q204.66-6.5 204.66-7.2L204.66-7.2Q204.66-8.9 206.41-10.45 208.16-12 209.36-12L209.36-12Q210.01-12 210.01-11.38 210.01-10.75 208.01-8.35L208.01-8.35Q207.81-8.1 207.56-7.85 207.31-7.6 207.03-7.28 206.76-6.95 206.61-6.8L206.61-6.8Q206.86-6.55 207.51-5.93 208.16-5.3 208.56-4.9L208.56-4.9Q209.66-3.8 209.66-2.15 209.66-0.5 207.61 0.73 205.56 1.95 203.33 1.95 201.11 1.95 201.11 0.63 201.11-0.7 203.16-1.8 205.21-2.9 207.46-3.3L207.46-3.3Q207.16-3.7 206.33-4.35 205.51-5 205.21-5.45ZM207.81-2.7Q206.11-2.5 204.61-1.78 203.11-1.05 203.11-0.08 203.11 0.9 204.48 0.9 205.86 0.9 206.93 0.25 208.01-0.4 208.01-1.2 208.01-2 207.81-2.7L207.81-2.7ZM206.26-7.2L206.26-7.2 207.56-8.6Q208.86-10.15 208.86-10.48 208.86-10.8 208.56-10.8L208.56-10.8Q207.71-10.8 206.81-9.98 205.91-9.15 205.91-8.38 205.91-7.6 206.26-7.2ZM227.66-16.5L227.66-16.5Q231.06-16.5 234.36-16.55L234.36-16.55Q239.71-23.4 241.66-23.4L241.66-23.4Q242.36-23.4 242.36-22.65L242.36-22.65Q242.36-20.25 238.86-16.65L238.86-16.65 242.66-16.7Q246.46-16.85 247.31-16.85 248.16-16.85 248.16-16.65L248.16-16.65Q248.16-15.7 246.86-15.65L246.86-15.65 237.46-15.25Q235.01-12.95 231.41-10.4L231.41-10.4Q227.61-4.15 227.61-1.9L227.61-1.9Q227.61-0.75 229.08-0.75 230.56-0.75 233.76-2.35L233.76-2.35 237.81-4.7Q237.86-4.6 237.86-4.3 237.86-4 237.41-3.8L237.41-3.8Q235.81-2.7 233.91-1.6L233.91-1.6Q229.86 0.45 227.71 0.45L227.71 0.45Q226.71 0.45 226.16 0.05 225.61-0.35 225.56-0.75L225.56-0.75 225.46-1.15Q225.46-2.85 227.76-6.88 230.06-10.9 233.21-15.1L233.21-15.1Q230.81-15 228.66-15 226.51-15 226.51-15.5L226.51-15.5Q226.51-16.45 227.66-16.5ZM240.81-21.6L240.81-21.6Q240.81-21.85 240.61-21.85L240.61-21.85Q239.46-21.85 235.51-16.6L235.51-16.6 238.01-16.6Q240.81-19.65 240.81-21.6ZM236.61-15.2L236.61-15.2Q235.01-15.2 234.46-15.15L234.46-15.15Q234.01-14.5 233.21-13.25 232.41-12 232.11-11.55L232.11-11.55Q234.71-13.45 236.61-15.2ZM252.56-4.15L252.56-4.15 251.31-3.35Q251.11-3.25 250.93-3.25 250.76-3.25 250.76-3.45 250.76-3.65 250.91-3.8L250.91-3.8Q251.31-4 253.43-5.63 255.56-7.25 256.18-7.25 256.81-7.25 256.81-6.53 256.81-5.8 255.28-3.55 253.76-1.3 253.76-1.13 253.76-0.95 253.86-0.95L253.86-0.95Q254.31-0.95 259.06-4.9 263.81-8.85 264.21-8.85L264.21-8.85Q264.96-8.85 264.96-8.15L264.96-8.15Q264.96-7.7 263.23-5.08 261.51-2.45 260.96-1.5L260.96-1.5Q261.01-1.45 261.18-1.45 261.36-1.45 263.21-2.78 265.06-4.1 267.06-5.6 269.06-7.1 269.41-7.33 269.76-7.55 270.06-7.55L270.06-7.55Q270.66-7.5 270.66-6.85L270.66-6.85Q270.66-6.6 268.93-4.23 267.21-1.85 267.21-1.2L267.21-1.2Q267.21-0.75 268.28-0.75 269.36-0.75 271.46-1.73 273.56-2.7 275.16-3.7L275.16-3.7 276.76-4.7Q276.81-4.6 276.81-4.3 276.81-4 276.36-3.8L276.36-3.8Q269.61 0.8 266.96 0.8L266.96 0.8Q265.41 0.8 265.41-0.4L265.41-0.4Q265.41-1.55 266.08-2.6 266.76-3.65 267.26-4.38 267.76-5.1 267.76-5.15L267.76-5.15Q261.06-0.25 260.03 0.23 259.01 0.7 258.56 0.7 258.11 0.7 258.11-0.3L258.11-0.3 261.71-5.9Q261.11-5.65 257.81-3.15 254.51-0.65 252.66 1L252.66 1Q251.96 1.85 251.31 1.85L251.31 1.85Q250.66 1.7 250.66 1L250.66 1Q250.66 0.8 252.48-1.95 254.31-4.7 254.31-4.93 254.31-5.15 254.18-5.15 254.06-5.15 253.76-4.98 253.46-4.8 253.06-4.5 252.66-4.2 252.56-4.15ZM299.36-5.95L299.36-5.95Q299.06-5.95 299.06-6.3L299.06-6.3 299.21-6.65Q300.11-7.5 300.11-8.1L300.11-8.1Q300.11-8.85 299.31-8.85L299.31-8.85Q297.56-8.85 294.58-6.43 291.61-4 291.61-2.1L291.61-2.1Q291.61-1.3 292.66-1.3 293.71-1.3 295.08-2.18 296.46-3.05 297.43-3.93 298.41-4.8 298.51-4.8L298.51-4.8Q299.01-4.75 299.01-4.3L299.01-4.3Q299.01-4.1 298.23-3 297.46-1.9 297.46-1.25L297.46-1.25Q297.46-0.75 298.28-0.75 299.11-0.75 301.21-1.73 303.31-2.7 304.91-3.7L304.91-3.7 306.51-4.7Q306.56-4.6 306.56-4.3 306.56-4 306.11-3.8L306.11-3.8Q299.36 0.8 296.71 0.8L296.71 0.8Q295.41 0.8 295.41-0.5L295.41-0.5Q295.41-1.05 295.61-1.65L295.61-1.65Q295.26-1.25 293.53-0.43 291.81 0.4 290.46 0.4 289.11 0.4 289.11-0.85L289.11-0.85Q289.11-3.8 293.21-6.88 297.31-9.95 300.11-9.95L300.11-9.95Q301.76-9.95 301.76-8.55L301.76-8.55Q301.76-7.75 300.76-6.85 299.76-5.95 299.36-5.95ZM322.66-5.45L322.66-5.45Q320.26-3.25 319.61-3.25L319.61-3.25Q319.41-3.25 319.41-3.45 319.41-3.65 319.56-3.8L319.56-3.8Q320.76-4.45 322.36-5.9L322.36-5.9Q322.11-6.5 322.11-7.2L322.11-7.2Q322.11-8.9 323.86-10.45 325.61-12 326.81-12L326.81-12Q327.46-12 327.46-11.38 327.46-10.75 325.46-8.35L325.46-8.35Q325.26-8.1 325.01-7.85 324.76-7.6 324.49-7.28 324.21-6.95 324.06-6.8L324.06-6.8Q324.31-6.55 324.96-5.93 325.61-5.3 326.01-4.9L326.01-4.9Q327.11-3.8 327.11-2.15 327.11-0.5 325.06 0.73 323.01 1.95 320.79 1.95 318.56 1.95 318.56 0.63 318.56-0.7 320.61-1.8 322.66-2.9 324.91-3.3L324.91-3.3Q324.61-3.7 323.79-4.35 322.96-5 322.66-5.45ZM325.26-2.7Q323.56-2.5 322.06-1.78 320.56-1.05 320.56-0.08 320.56 0.9 321.94 0.9 323.31 0.9 324.39 0.25 325.46-0.4 325.46-1.2 325.46-2 325.26-2.7L325.26-2.7ZM323.71-7.2L323.71-7.2 325.01-8.6Q326.31-10.15 326.31-10.48 326.31-10.8 326.01-10.8L326.01-10.8Q325.16-10.8 324.26-9.98 323.36-9.15 323.36-8.38 323.36-7.6 323.71-7.2ZM398.76-33.1L398.76-33.1 394.31-33.15 393.81-33.15Q388.51-33.15 383.39-31.65 378.26-30.15 374.79-27.98 371.31-25.8 369.19-23.5 367.06-21.2 367.06-19.55L367.06-19.55Q367.06-17.3 370.49-17.3 373.91-17.3 378.79-19.63 383.66-21.95 386.96-25.5L386.96-25.5Q387.51-26.05 387.71-26.05L387.71-26.05Q387.81-26.05 387.81-25.9 387.81-25.75 387.76-25.65L387.76-25.65Q386.36-22.35 380.99-18.88 375.61-15.4 370.46-15.4L370.46-15.4Q368.26-15.4 367.14-16.3 366.01-17.2 366.01-19.07 366.01-20.95 368.09-23.68 370.16-26.4 373.76-28.95 377.36-31.5 383.14-33.25 388.91-35 395.36-35L395.36-35Q416.56-35 417.26-35.1 417.96-35.2 418.44-35.2 418.91-35.2 418.91-35 418.91-34.8 418.39-34.38 417.86-33.95 416.59-33.52 415.31-33.1 413.71-33.1L413.71-33.1Q406.21-33.1 398.76-33.1ZM396.71-31.1L396.96-30.9Q396.96-30.8 396.86-30.6L396.86-30.6 386.91-11.3Q391.01-11.4 392.81-11.4L392.81-11.4 394.71-11.4Q397.96-11.35 397.96-11.03 397.96-10.7 397.24-10.18 396.51-9.65 395.86-9.65L395.86-9.65Q394.46-9.75 389.21-9.75L389.21-9.75 386.11-9.75 381.21-0.2Q380.91 0.45 380.11 0.8 379.31 1.15 378.89 1.15 378.46 1.15 378.46 0.9 378.46 0.65 383.91-9.7L383.91-9.7Q377.71-9.5 374.41-9.1L374.41-9.1Q374.01-9.1 374.01-9.3L374.01-9.3Q374.01-9.55 374.96-10.4L374.96-10.4Q375.76-10.9 384.71-11.2L384.71-11.2Q394.56-29.85 394.46-29.95L394.46-29.95Q394.76-30.45 395.46-30.7L395.46-30.7 396.71-31.1ZM413.71-0.5L413.71-0.5Q413.71-1.05 414.54-2.35 415.36-3.65 415.64-4 415.91-4.35 416.46-5.1L416.46-5.1Q410.51 0.3 408.26 0.3L408.26 0.3Q407.01 0.3 407.01-0.75L407.01-0.75Q407.01-2.25 412.06-9.2L412.06-9.2Q412.31-9.6 412.71-9.6L412.71-9.6Q413.86-9.25 413.86-9.1 413.86-8.95 413.56-8.5L413.56-8.5Q409.26-2.7 409.26-1.98 409.26-1.25 409.76-1.25L409.76-1.25Q411.16-1.25 414.74-4.48 418.31-7.7 419.91-9.8L419.91-9.8Q420.11-10.15 420.56-10.15L420.56-10.15Q421.56-9.95 421.56-9.75L421.56-9.75Q421.01-8.95 420.06-7.65 419.11-6.35 418.51-5.53 417.91-4.7 417.26-3.75L417.26-3.75Q416.01-2.05 415.76-1.25L415.76-1.25Q415.76-0.75 416.59-0.75 417.41-0.75 419.51-1.73 421.61-2.7 423.21-3.7L423.21-3.7 424.81-4.7Q424.86-4.6 424.86-4.3 424.86-4 424.41-3.8L424.41-3.8Q417.66 0.8 415.01 0.8L415.01 0.8Q413.71 0.8 413.71-0.5ZM439.01-16.5L439.01-16.5Q442.41-16.5 445.71-16.55L445.71-16.55Q451.06-23.4 453.01-23.4L453.01-23.4Q453.71-23.4 453.71-22.65L453.71-22.65Q453.71-20.25 450.21-16.65L450.21-16.65 454.01-16.7Q457.81-16.85 458.66-16.85 459.51-16.85 459.51-16.65L459.51-16.65Q459.51-15.7 458.21-15.65L458.21-15.65 448.81-15.25Q446.36-12.95 442.76-10.4L442.76-10.4Q438.96-4.15 438.96-1.9L438.96-1.9Q438.96-0.75 440.44-0.75 441.91-0.75 445.11-2.35L445.11-2.35 449.16-4.7Q449.21-4.6 449.21-4.3 449.21-4 448.76-3.8L448.76-3.8Q447.16-2.7 445.26-1.6L445.26-1.6Q441.21 0.45 439.06 0.45L439.06 0.45Q438.06 0.45 437.51 0.05 436.96-0.35 436.91-0.75L436.91-0.75 436.81-1.15Q436.81-2.85 439.11-6.88 441.41-10.9 444.56-15.1L444.56-15.1Q442.16-15 440.01-15 437.86-15 437.86-15.5L437.86-15.5Q437.86-16.45 439.01-16.5ZM452.16-21.6L452.16-21.6Q452.16-21.85 451.96-21.85L451.96-21.85Q450.81-21.85 446.86-16.6L446.86-16.6 449.36-16.6Q452.16-19.65 452.16-21.6ZM447.96-15.2L447.96-15.2Q446.36-15.2 445.81-15.15L445.81-15.15Q445.36-14.5 444.56-13.25 443.76-12 443.46-11.55L443.46-11.55Q446.06-13.45 447.96-15.2ZM468.42-0.5L468.42-0.5Q468.42-1.05 469.24-2.35 470.07-3.65 470.34-4 470.62-4.35 471.17-5.1L471.17-5.1Q465.22 0.3 462.97 0.3L462.97 0.3Q461.72 0.3 461.72-0.75L461.72-0.75Q461.72-2.25 466.77-9.2L466.77-9.2Q467.02-9.6 467.42-9.6L467.42-9.6Q468.57-9.25 468.57-9.1 468.57-8.95 468.27-8.5L468.27-8.5Q463.97-2.7 463.97-1.98 463.97-1.25 464.47-1.25L464.47-1.25Q465.87-1.25 469.44-4.48 473.02-7.7 474.62-9.8L474.62-9.8Q474.82-10.15 475.27-10.15L475.27-10.15Q476.27-9.95 476.27-9.75L476.27-9.75Q475.72-8.95 474.77-7.65 473.82-6.35 473.22-5.53 472.62-4.7 471.97-3.75L471.97-3.75Q470.72-2.05 470.47-1.25L470.47-1.25Q470.47-0.75 471.29-0.75 472.12-0.75 474.22-1.73 476.32-2.7 477.92-3.7L477.92-3.7 479.52-4.7Q479.57-4.6 479.57-4.3 479.57-4 479.12-3.8L479.12-3.8Q472.37 0.8 469.72 0.8L469.72 0.8Q468.42 0.8 468.42-0.5ZM492.97-3.35L492.97-3.35Q492.77-3.25 492.59-3.25 492.42-3.25 492.42-3.45 492.42-3.65 492.57-3.8L492.57-3.8Q494.62-4.95 497.07-7.55L497.07-7.55Q494.82-8.25 494.82-9.53 494.82-10.8 496.52-12.38 498.22-13.95 499.72-13.95L499.72-13.95Q500.72-13.95 500.72-12.75L500.72-12.75Q500.72-10.9 498.87-8.8L498.87-8.8Q501.27-8.4 501.27-7.65L501.27-7.65Q501.27-6.65 500.39-6.13 499.52-5.6 498.37-4.25 497.22-2.9 497.22-1.55L497.22-1.55Q497.22-1.25 497.42-1 497.62-0.75 498.27-0.75 498.92-0.75 501.02-1.73 503.12-2.7 504.72-3.7L504.72-3.7 506.32-4.7Q506.37-4.6 506.37-4.3 506.37-4 505.92-3.8L505.92-3.8Q499.17 0.8 496.52 0.8L496.52 0.8Q495.22 0.8 495.22-0.5L495.22-0.5Q495.22-1.55 495.94-2.7 496.67-3.85 497.54-4.6 498.42-5.35 499.14-6.03 499.87-6.7 499.87-6.9 499.87-7.1 499.24-7.15 498.62-7.2 497.62-7.4L497.62-7.4Q494.87-4.45 492.97-3.35ZM496.07-10.3L496.07-10.3Q496.07-9.3 498.27-8.9L498.27-8.9Q499.57-10.5 499.57-11.68 499.57-12.85 498.82-12.85 498.07-12.85 497.07-11.98 496.07-11.1 496.07-10.3ZM522.22-4.85L522.22-4.85Q519.22-4.85 519.22-6.15L519.22-6.15Q519.22-7.7 522.77-9.83 526.32-11.95 529.17-11.95L529.17-11.95Q530.62-11.95 530.62-11.05L530.62-11.05Q530.62-10.55 529.87-9.95 529.12-9.35 528.42-9 527.72-8.65 527.62-8.65L527.62-8.65Q527.32-8.65 527.22-8.9L527.22-8.9Q527.12-9.25 527.74-9.63 528.37-10 528.37-10.45 528.37-10.9 527.24-10.9 526.12-10.9 523.72-9.33 521.32-7.75 521.32-6.75L521.32-6.75Q521.32-6 523.07-6L523.07-6Q523.37-6 524.17-6.05 524.97-6.1 524.97-5.85 524.97-5.6 522.49-4.05 520.02-2.5 520.02-1.4L520.02-1.4Q520.02-0.15 521.64-0.15 523.27-0.15 525.32-1L525.32-1Q528.62-2.45 531.32-4.1L531.32-4.1 532.27-4.7Q532.32-4.6 532.32-4.3 532.32-4 531.87-3.8L531.87-3.8Q529.22-2 526.07-0.38 522.92 1.25 520.39 1.25 517.87 1.25 517.87-0.43 517.87-2.1 522.22-4.85Z" opacity="1" transform="matrix(1,0,0,1,0,0)" fill="#b89600" class="undefined-text-1" data-fill-palette-color="secondary" id="text-1"></path></svg></g></svg></g></svg></g></svg></g></svg></g></svg></g></svg></g><g mask="url(#7b23f491-63d3-41b2-a9c9-7f48483f7cb6)"><g transform="matrix(2.5135056394784923, 0, 0, 2.5135056394784923, 103.82315368140031, 1)"><svg xmlns="http://www.w3.org/2000/svg" xmlns:xlink="http://www.w3.org/1999/xlink" version="1.1" x="0" y="0" viewBox="12.368045806884766 0.045000553131103516 74.74568176269531 97.55299377441406" enable-background="new 0 0 100 100" xml:space="preserve" height="97.55299377441406" width="74.74568176269531" class="icon-none" data-fill-palette-color="accent" id="none"><g fill="#009f00" data-fill-palette-color="accent"><circle cx="44.743" cy="27.667" r="2.0" fill="#009f00" data-fill-palette-color="accent"></circle><circle cx="54.743" cy="27.667" r="2.0" fill="#009f00" data-fill-palette-color="accent"></circle><circle cx="49.878" cy="35.667" r="2.0" fill="#009f00" data-fill-palette-color="accent"></circle><circle cx="40.015" cy="35.667" r="2.0" fill="#009f00" data-fill-palette-color="accent"></circle><circle cx="59.47" cy="35.667" r="2.0" fill="#009f00" data-fill-palette-color="accent"></circle><circle cx="35.334" cy="43.667" r="2.0" fill="#009f00" data-fill-palette-color="accent"></circle><circle cx="64.151" cy="43.667" r="2.0" fill="#009f00" data-fill-palette-color="accent"></circle><circle cx="50.163" cy="51.776" r="2.0" fill="#009f00" data-fill-palette-color="accent"></circle><circle cx="59.416" cy="51.667" r="2.0" fill="#009f00" data-fill-palette-color="accent"></circle><circle cx="36.025" cy="59.886" r="2.0" fill="#009f00" data-fill-palette-color="accent"></circle><circle cx="26.162" cy="59.886" r="2.0" fill="#009f00" data-fill-palette-color="accent"></circle><circle cx="64.232" cy="59.776" r="2.0" fill="#009f00" data-fill-palette-color="accent"></circle><circle cx="73.459" cy="59.776" r="2.0" fill="#009f00" data-fill-palette-color="accent"></circle><circle cx="41.004" cy="68.104" r="2.0" fill="#009f00" data-fill-palette-color="accent"></circle><circle cx="50.257" cy="67.995" r="2.0" fill="#009f00" data-fill-palette-color="accent"></circle><circle cx="59.619" cy="67.995" r="2.0" fill="#009f00" data-fill-palette-color="accent"></circle><circle cx="68.846" cy="67.995" r="2.0" fill="#009f00" data-fill-palette-color="accent"></circle><circle cx="36.391" cy="76.323" r="2.0" fill="#009f00" data-fill-palette-color="accent"></circle><circle cx="45.644" cy="76.214" r="2.0" fill="#009f00" data-fill-palette-color="accent"></circle><circle cx="55.006" cy="76.214" r="2.0" fill="#009f00" data-fill-palette-color="accent"></circle><circle cx="64.232" cy="76.214" r="2.0" fill="#009f00" data-fill-palette-color="accent"></circle><path d="M87.012 71.938c-0.758-2.448-2.567-3.169-3.889-3.696-1.182-0.471-1.716-0.719-2.006-1.655-0.312-1.009 0.026-1.693 0.703-2.914 0.753-1.358 1.69-3.048 0.961-5.404-0.753-2.434-2.561-3.149-3.879-3.672-1.182-0.468-1.716-0.714-2.005-1.648-0.312-1.008 0.026-1.692 0.703-2.912 0.753-1.358 1.689-3.048 0.961-5.402-0.662-2.142-2.165-2.843-3.373-3.407-0.228-0.106-0.46-0.214-0.691-0.336-2.167-1.146-4.037-4.583-5.688-7.616-1.079-1.982-2.097-3.854-3.244-5.284-3.745-4.671-8.875-11.069-15.748-11.069H49.67c-6.874 0-12.003 6.397-15.748 11.069-1.146 1.43-2.165 3.302-3.244 5.284-1.65 3.033-3.521 6.47-5.687 7.616-0.231 0.122-0.464 0.23-0.692 0.336-1.208 0.564-2.711 1.266-3.373 3.407-0.728 2.354 0.208 4.044 0.961 5.402 0.677 1.22 1.015 1.904 0.703 2.912-0.289 0.934-0.824 1.18-2.005 1.648-1.319 0.522-3.126 1.238-3.879 3.672-0.729 2.355 0.208 4.046 0.961 5.404 0.677 1.221 1.016 1.905 0.704 2.914-0.291 0.938-0.826 1.185-2.009 1.654-1.319 0.523-3.125 1.241-3.879 3.677-1.052 3.397 5.394 7.555 8.022 8.563 1.108 0.424 2.638 0.313 4.076 0.116 1.192-0.164 2.461-0.289 3.351-0.047 0.636 0.174 1.415 0.782 2.24 1.426 1.231 0.961 2.627 2.051 4.376 2.361 0.281 0.05 0.577 0.075 0.878 0.075 1.194 0 2.34-0.385 3.449-0.757 1.086-0.365 2.087-0.713 2.989-0.633 0.349 0.03 0.742 0.163 1.162 0.35v14.226h13.433V83.004c0.902-0.026 1.879 0.279 2.938 0.615 1.14 0.362 2.318 0.736 3.538 0.736 0.32 0 0.633-0.027 0.931-0.079 1.775-0.311 3.22-1.394 4.495-2.35 0.881-0.66 1.713-1.283 2.41-1.467 0.939-0.249 2.268-0.12 3.512 0.049 1.468 0.2 3.032 0.316 4.17-0.095C79.43 80.062 88.147 75.679 87.012 71.938zM23.976 45.577c0.232-0.752 0.612-0.962 1.674-1.458 0.274-0.128 0.553-0.259 0.833-0.406 3.017-1.596 5.041-5.315 6.998-8.912 1.009-1.854 1.961-3.605 2.93-4.813 3.341-4.167 7.917-9.874 13.259-9.874h0.148c5.342 0 9.917 5.707 13.259 9.874 0.969 1.208 1.921 2.959 2.93 4.813 0.052 0.095 0.104 0.19 0.156 0.286-4.002 2.632-7.837 4.801-11.438 6.569-0.581 0.019-1.095 0.283-1.452 0.693-2.388 1.124-4.666 2.075-6.817 2.88 0.458-0.37 0.757-0.929 0.757-1.562 0-1.112-0.905-2.017-2.017-2.017s-2.017 0.905-2.017 2.017 0.905 2.017 2.017 2.017c0.013 0 0.024-0.003 0.036-0.003-11.97 4.273-19.705 3.983-19.819 3.982L25.4 49.929c-0.22-0.521-0.478-1-0.722-1.439C24.002 47.269 23.664 46.585 23.976 45.577zM19.755 59.212c0.289-0.934 0.824-1.18 2.005-1.648 1.319-0.522 3.126-1.238 3.879-3.672 0.111-0.359 0.173-0.699 0.213-1.028 0.051 0 0.097 0.001 0.154 0.001 0.625 0 1.62-0.026 2.934-0.135 0.342 0.63 1.001 1.063 1.767 1.063 0.936 0 1.718-0.644 1.944-1.509 1.748-0.269 3.772-0.662 6.042-1.23-0.087 0.225-0.14 0.467-0.14 0.722 0 1.112 0.905 2.017 2.017 2.017s2.017-0.905 2.017-2.017c0-0.64-0.305-1.205-0.771-1.574 3.622-1.071 7.733-2.571 12.231-4.664 0.23 0.092 0.479 0.146 0.742 0.146 0.908 0 1.668-0.607 1.921-1.433 3.485-1.748 7.175-3.852 11.027-6.377 1.477 2.48 3.119 4.701 5.27 5.838 0.279 0.147 0.558 0.278 0.832 0.406 1.062 0.496 1.442 0.706 1.674 1.459 0.057 0.185 0.085 0.356 0.101 0.525-1.807 1.451-3.658 2.792-5.538 4.034-0.352-0.299-0.801-0.486-1.298-0.486-1.112 0-2.017 0.905-2.017 2.017 0 0.177 0.03 0.346 0.073 0.51-3.79 2.245-7.651 4.106-11.45 5.657-0.165-0.044-0.335-0.075-0.514-0.075-0.718 0-1.345 0.379-1.702 0.946-1.927 0.73-3.83 1.384-5.692 1.965 0.102-0.241 0.159-0.506 0.159-0.784 0-1.112-0.905-2.017-2.017-2.017S43.6 58.773 43.6 59.886c0 0.692 0.351 1.304 0.884 1.667-10.477 2.931-19.241 3.667-22.833 3.848-0.115-1.305-0.689-2.368-1.193-3.276C19.782 60.904 19.443 60.22 19.755 59.212zM46.218 94.404V84.97c0.839 0.355 1.737 0.619 2.702 0.619 1.609 0 3.056-0.694 4.348-1.362v10.178H46.218zM82.332 74.312c-0.204-0.069-0.419-0.116-0.646-0.116-1.112 0-2.017 0.905-2.017 2.017 0 0.001 0 0.001 0 0.002-0.861 0.536-1.688 0.976-2.297 1.196-0.463 0.167-1.325 0.102-2.284-0.019 0.242-0.333 0.388-0.738 0.388-1.179 0-1.112-0.905-2.017-2.017-2.017s-2.017 0.905-2.017 2.017c0 0.335 0.09 0.647 0.236 0.926-0.61 0.026-1.186 0.093-1.721 0.235-1.298 0.342-2.421 1.184-3.508 1.999-1.037 0.777-2.11 1.581-3.133 1.76-0.827 0.147-1.834-0.2-2.953-0.555-1.313-0.417-2.845-0.894-4.379-0.755-1.403 0.123-2.668 0.782-3.891 1.419-1.142 0.595-2.22 1.156-3.173 1.156-0.897 0-1.925-0.554-3.012-1.141-1.181-0.637-2.402-1.296-3.767-1.415-0.175-0.016-0.352-0.023-0.528-0.023-1.343 0-2.624 0.43-3.753 0.809-1.053 0.353-1.997 0.701-2.756 0.565-0.966-0.171-1.984-0.965-2.968-1.733-1.037-0.81-2.109-1.647-3.364-1.989-0.091-0.025-0.189-0.034-0.282-0.055 0.204-0.315 0.326-0.689 0.326-1.092 0-1.112-0.905-2.017-2.017-2.017s-2.017 0.905-2.017 2.017c0 0.364 0.104 0.702 0.274 0.997-0.311 0.036-0.623 0.074-0.91 0.114-1.054 0.145-2.032 0.245-2.5 0.065-0.572-0.219-1.157-0.513-1.728-0.845 0.019-0.108 0.034-0.218 0.034-0.331 0-1.112-0.905-2.017-2.017-2.017-0.328 0-0.633 0.086-0.907 0.226-0.791-0.724-1.342-1.391-1.456-1.794 0.299-0.838 0.838-1.083 1.968-1.532 0.829-0.329 1.849-0.735 2.681-1.596 0.355 0.314 0.817 0.511 1.328 0.511 0.975 0 1.79-0.695 1.977-1.615 1.551-0.103 3.547-0.279 5.887-0.576-0.005 0.058-0.018 0.114-0.018 0.174 0 1.112 0.905 2.017 2.017 2.017s2.017-0.905 2.017-2.017c0-0.261-0.054-0.508-0.144-0.737 5.93-0.967 13.308-2.664 21.093-5.642 0.158 0.04 0.321 0.068 0.492 0.068 0.712 0 1.336-0.374 1.695-0.932 5.667-2.326 11.486-5.346 17.062-9.267-0.083 0.691-0.042 1.45 0.22 2.297 0.753 2.434 2.561 3.149 3.879 3.672 1.182 0.468 1.716 0.714 2.005 1.648 0.312 1.008-0.026 1.692-0.704 2.913-0.579 1.045-1.259 2.29-1.214 3.879-0.99 0.128-1.76 0.967-1.76 1.991 0 1.112 0.905 2.017 2.017 2.017 0.449 0 0.86-0.152 1.195-0.401 0.83 0.858 1.847 1.265 2.673 1.595 1.1 0.438 1.644 0.685 1.95 1.466C83.696 73.08 83.102 73.676 82.332 74.312z" fill="#009f00" data-fill-palette-color="accent"></path><path d="M44.186 17.149l5.557-2.922 5.557 2.922-1.061-6.188 4.496-4.383-6.213-0.903-2.779-5.63-2.779 5.63L40.75 6.578l4.496 4.383L44.186 17.149zM48.956 8.417l0.787-1.594 0.787 1.594 1.758 0.255-1.272 1.24 0.3 1.752-1.573-0.827-1.573 0.827 0.3-1.752-1.272-1.24L48.956 8.417z" fill="#009f00" data-fill-palette-color="accent"></path></g></svg></g></g></svg></g><defs><mask id="ad7f099c-7dd6-47f7-895a-48303a684632"><rect width="640" height="400" fill="white"></rect><rect width="348.05760000000004" height="120.59798697478783" fill="black" y="63.30100651260608" x="23.731199999999973" id="transform-me"></rect></mask><mask id="7b23f491-63d3-41b2-a9c9-7f48483f7cb6"><rect width="640" height="400" fill="white"></rect><rect width="348.05760000000004" height="120.59798697478783" fill="black" y="63.30100651260608" x="23.731199999999973" id="transform-me"></rect></mask></defs></svg><rect width="395.52" height="247.2" fill="none" stroke="none" visibility="hidden"></rect></g></svg></g></svg>